<svg width="13" height="12" viewBox="0 0 13 12" fill="none" xmlns="http://www.w3.org/2000/svg">
<path d="M13 6C13 9.31375 10.0899 12 6.5 12C2.91011 12 0 9.31375 0 6C0 2.68625 2.91011 0 6.5 0C10.0899 0 13 2.68625 13 6ZM10.4633 3.43244C10.2325 3.21949 9.85837 3.21949 9.62756 3.43244L5.31818 7.41044L3.37244 5.61425C3.14163 5.40131 2.76746 5.40131 2.53666 5.61425C2.30596 5.82731 2.30596 6.17269 2.53666 6.38575L4.90029 8.56756C5.1311 8.78051 5.50526 8.78051 5.73607 8.56756L10.4633 4.20393C10.694 3.99087 10.694 3.64549 10.4633 3.43244Z" fill="#62DE00"/>
</svg>
